<svg width="56" height="56" viewBox="0 0 56 56" fill="none" xmlns="http://www.w3.org/2000/svg">
<circle cx="28" cy="28" r="27.5" stroke="#CECECE"/>
<path fill-rule="evenodd" clip-rule="evenodd" d="M31.6838 18H24.3162C20.918 18 19.6466 18.455 19.0508 19.0508C18.455 19.6466 18 20.918 18 24.3162V31.6838C18 35.082 18.455 36.3534 19.0508 36.9492C19.6466 37.545 20.918 38 24.3162 38H31.6838C35.082 38 36.3534 37.545 36.9492 36.9492C37.545 36.3534 38 35.082 38 31.6838V24.3162C38 20.9215 37.5418 19.6486 36.9441 19.052C36.3455 18.4544 35.0718 18 31.6838 18ZM31.6838 16H24.3162C17.5921 16 16 17.5921 16 24.3162V31.6838C16 38.4079 17.5921 40 24.3162 40H31.6838C38.4079 40 40 38.4079 40 31.6838V24.3162C40 17.5921 38.391 16 31.6838 16Z" fill="#1B201E"/>
<path d="M31.6987 21.0029L29.7799 21C27.6242 21 26.231 22.3523 26.231 24.4454V26.034H24.3017C24.135 26.034 24 26.1619 24 26.3196V28.6213C24 28.779 24.1352 28.9067 24.3017 28.9067H26.231V34.7145C26.231 34.8723 26.366 35 26.5327 35H29.0499C29.2166 35 29.3517 34.8721 29.3517 34.7145V28.9067H31.6075C31.7742 28.9067 31.9092 28.779 31.9092 28.6213L31.9101 26.3196C31.9101 26.2439 31.8782 26.1713 31.8217 26.1177C31.7652 26.0641 31.6883 26.034 31.6082 26.034H29.3517V24.6873C29.3517 24.0401 29.5147 23.7115 30.4058 23.7115L31.6984 23.7111C31.865 23.7111 32 23.5832 32 23.4256V21.2884C32 21.1309 31.8652 21.0032 31.6987 21.0029Z" fill="#1B201E"/>
</svg>
