<svg width="56" height="56" viewBox="0 0 56 56" fill="none" xmlns="http://www.w3.org/2000/svg">
<circle cx="28" cy="28" r="27.5" stroke="#CECECE"/>
<path d="M33.377 16H22.623C20.867 16.0019 19.1835 16.7002 17.9419 17.9419C16.7002 19.1835 16.0019 20.867 16 22.623V33.377C16.0019 35.133 16.7002 36.8165 17.9419 38.0581C19.1835 39.2998 20.867 39.9981 22.623 40H33.377C35.133 39.9981 36.8165 39.2998 38.0581 38.0581C39.2998 36.8165 39.9981 35.133 40 33.377V22.623C39.9981 20.867 39.2998 19.1835 38.0581 17.9419C36.8165 16.7002 35.133 16.0019 33.377 16V16ZM37.871 33.377C37.8697 34.5685 37.3958 35.7108 36.5533 36.5533C35.7108 37.3958 34.5685 37.8697 33.377 37.871H22.623C21.4315 37.8697 20.2892 37.3958 19.4467 36.5533C18.6042 35.7108 18.1303 34.5685 18.129 33.377V22.623C18.1306 21.4317 18.6046 20.2897 19.4471 19.4474C20.2895 18.6051 21.4317 18.1313 22.623 18.13H33.377C34.5685 18.1313 35.7108 18.6052 36.5533 19.4477C37.3958 20.2902 37.8697 21.4325 37.871 22.624V33.378V33.377Z" fill="#1B201E"/>
<path d="M27.9999 21.8177C26.3604 21.8196 24.7885 22.4717 23.6292 23.631C22.4699 24.7903 21.8178 26.3622 21.8159 28.0017C21.8178 29.6412 22.4699 31.2131 23.6292 32.3724C24.7885 33.5317 26.3604 34.1839 27.9999 34.1857C29.6394 34.1839 31.2113 33.5317 32.3706 32.3724C33.5299 31.2131 34.1821 29.6412 34.1839 28.0017C34.1821 26.3622 33.5299 24.7903 32.3706 23.631C31.2113 22.4717 29.6394 21.8196 27.9999 21.8177ZM27.9999 32.0567C26.9249 32.0554 25.8942 31.6277 25.1341 30.8676C24.3739 30.1074 23.9462 29.0768 23.9449 28.0017C23.9462 26.9267 24.3739 25.896 25.1341 25.1359C25.8942 24.3757 26.9249 23.948 27.9999 23.9467C29.075 23.948 30.1056 24.3757 30.8658 25.1359C31.6259 25.896 32.0536 26.9267 32.0549 28.0017C32.0536 29.0768 31.6259 30.1074 30.8658 30.8676C30.1056 31.6277 29.075 32.0554 27.9999 32.0567ZM34.4429 20.0117C34.0292 20.0136 33.633 20.1787 33.3405 20.4713C33.0479 20.7638 32.8828 21.16 32.8809 21.5737C32.8809 21.9837 33.0489 22.3877 33.3409 22.6787C33.6299 22.9687 34.0329 23.1357 34.4429 23.1357C34.8549 23.1357 35.2569 22.9677 35.5479 22.6787C35.8379 22.3877 36.0049 21.9847 36.0049 21.5737C36.0049 21.1627 35.8389 20.7587 35.5479 20.4697C35.2544 20.1774 34.8572 20.0131 34.4429 20.0127V20.0117Z" fill="#1B201E"/>
</svg>
