<svg width="87" height="75" viewBox="0 0 87 75" fill="none" xmlns="http://www.w3.org/2000/svg">
<path d="M8.91255 70H12.1742L8.79877 64.1405C9.32973 63.9319 9.82277 63.6095 10.202 63.2113C10.9416 62.4528 11.226 61.6184 11.226 60.5375C11.226 58.1861 9.38662 56.726 7.01626 56.726H1.38429V70H4.19079V64.5008H5.85953L8.91255 70ZM4.19079 59.2291H6.73182C7.661 59.2291 8.3247 59.779 8.3247 60.6134C8.3247 61.5236 7.69893 62.0546 6.76975 62.0546H4.19079V59.2291ZM13.8887 59.3618C14.7989 59.3618 15.4816 58.6792 15.4816 57.7879C15.4816 56.9346 14.7989 56.233 13.8887 56.233C12.9974 56.233 12.3148 56.9346 12.3148 57.7879C12.3148 58.6792 12.9974 59.3618 13.8887 59.3618ZM12.5233 70H15.254V60.5565H12.5233V70ZM20.8356 70.2086C22.9405 70.2086 24.6282 69.2036 25.2919 67.2125L22.8267 66.3402C22.5233 67.1556 21.9165 67.7813 20.9115 67.7813C19.8685 67.7813 18.8824 66.9091 18.8824 65.2214C18.8824 63.5526 19.8875 62.7183 20.8925 62.7183C21.7837 62.7183 22.3906 63.1734 22.694 64.0077L25.216 63.2492C24.742 61.5805 23.206 60.31 20.8546 60.31C18.5032 60.31 16.1138 61.9977 16.1138 65.2214C16.1138 68.5209 18.4463 70.2086 20.8356 70.2086ZM30.413 62.7751C31.3991 62.7751 32.0438 63.3251 32.0438 64.6145V70H34.7745V64.0646C34.7745 61.5046 33.3333 60.3289 31.4181 60.3289C30.1855 60.3289 29.2373 60.8599 28.6495 61.6943V56.3847H25.9188V70H28.6495V64.0267C29.0098 63.2113 29.7114 62.7751 30.413 62.7751Z" fill="#FF6241"/>
<path d="M44.8205 70H47.646V56.726H44.8205V60.9926H39.0937V56.726H36.2493V70H39.0937V63.4957H44.8205V70ZM53.4874 70.2086C55.9526 70.2086 58.3419 68.4261 58.3419 65.2214C58.3419 62.0356 56.0285 60.31 53.4874 60.31C51.0412 60.31 48.633 62.0356 48.633 65.2214C48.633 68.483 50.9464 70.2086 53.4874 70.2086ZM53.4874 67.8003C52.4066 67.8003 51.4015 66.8901 51.4015 65.2214C51.4015 63.5526 52.4066 62.7183 53.4874 62.7183C54.5683 62.7183 55.5734 63.5716 55.5734 65.2214C55.5734 66.9091 54.6063 67.8003 53.4874 67.8003ZM65.0761 70H67.8068V60.5565H65.0761V66.5677C64.6969 67.3452 64.0332 67.7624 63.3695 67.7624C62.5161 67.7624 61.7956 67.2693 61.7956 65.9988V60.5565H59.0649V66.5677C59.0649 67.8193 59.3683 68.7295 59.9941 69.3173C60.6199 69.9052 61.4163 70.1896 62.3455 70.1896C63.5781 70.1896 64.4693 69.6776 65.0761 68.8433V70ZM72.5648 70.1896C73.7595 70.1896 74.7266 69.9052 75.4851 69.3553C76.2436 68.8053 76.6229 68.0658 76.6229 67.1556C76.6229 65.2024 75.1248 64.4628 73.2665 64.1594C72.1097 63.9888 71.3702 63.8371 71.3702 63.2113C71.3702 62.6614 71.8822 62.3011 72.6976 62.3011C73.5319 62.3011 74.0629 62.6614 74.2715 63.4388L76.585 62.851C76.1867 61.4098 74.9921 60.31 72.7165 60.31C71.5788 60.31 70.6306 60.5944 69.8721 61.1443C69.1326 61.6943 68.7533 62.4149 68.7533 63.3251C68.7533 65.1265 70.0997 65.904 72.0149 66.2264C73.1716 66.3971 73.9681 66.6625 73.9681 67.2883C73.9681 67.8951 73.3423 68.1796 72.5648 68.1796C71.5977 68.1796 70.972 67.6865 70.6875 66.7573L68.374 67.421C68.8481 69.2225 70.2893 70.1896 72.5648 70.1896ZM86.0338 68.0468L84.1754 66.7953C83.7014 67.6107 82.886 68.0658 81.9189 68.0658C80.6863 68.0658 79.6623 67.2504 79.5675 65.904H86.1476C86.1476 65.7523 86.1286 65.4868 86.1097 64.9369C86.0528 63.5147 85.6166 62.3959 84.7823 61.5615C83.9479 60.7272 82.886 60.31 81.5965 60.31C79.0744 60.31 76.8558 62.1114 76.8558 65.2214C76.8558 68.483 79.1882 70.2086 81.7861 70.2086C83.8341 70.2086 85.2753 69.3932 86.0338 68.0468ZM81.5206 62.4149C82.4498 62.4149 83.3221 62.9648 83.379 64.1594H79.6244C79.7192 62.9458 80.6104 62.4149 81.5206 62.4149Z" fill="#1B201E"/>
<path fill-rule="evenodd" clip-rule="evenodd" d="M13.855 0.380885C14.2588 -0.0461096 14.9111 -0.123632 15.4041 0.196773L26.1173 7.15864C26.5946 7.46878 26.7922 8.06771 26.593 8.6L25.0337 12.7657L26.8461 16.6565C26.9207 16.8167 26.9594 16.9913 26.9594 17.1679V23.5496C26.9594 23.6882 26.9356 23.8257 26.8891 23.9562L23.9936 32.0784C23.8705 32.4238 23.5975 32.6952 23.2508 32.8167L18.2566 34.5679L18.007 47.5728H53.4807V39.2138C53.4807 38.5436 54.0254 38.0002 54.6974 38.0002H61.0674C61.7393 38.0002 62.284 38.5436 62.284 39.2138V47.5728H78.3817V35.4428C78.3817 34.8435 78.8173 34.3456 79.3899 34.247L54.9457 14.3496L46.1495 20.7586C45.7796 21.0281 45.2893 21.0675 44.8809 20.8606C44.4725 20.6537 44.2153 20.2355 44.2153 19.7786V14.6105H40.2785V25.2901C40.2785 25.6624 40.1072 26.0141 39.8137 26.2442L29.2594 34.5193H33.8501V36.9465H25.7428C25.2242 36.9465 24.7626 36.6186 24.593 36.1297C24.4235 35.6408 24.5832 35.0984 24.9909 34.7788L37.8453 24.7004V13.3969C37.8453 12.7266 38.39 12.1833 39.0619 12.1833H45.4319C46.1038 12.1833 46.6485 12.7266 46.6485 13.3969V17.3893L54.2693 11.8367C54.7163 11.5111 55.3273 11.5274 55.7561 11.8765L83.5525 34.5026C83.9511 34.827 84.102 35.3666 83.9294 35.8501C83.7567 36.3336 83.2978 36.6564 82.7833 36.6564H80.8149V48.7864C80.8149 49.4567 80.2702 50 79.5983 50H61.0674C60.3955 50 59.8508 49.4567 59.8508 48.7864V40.4274H55.914V48.7864C55.914 49.4567 55.3693 50 54.6974 50H2V47.5728H11.4966V34.5886L5.97286 32.8278C5.61752 32.7145 5.33392 32.4449 5.20343 32.0963L3.46615 27.4551C3.41533 27.3193 3.3893 27.1755 3.3893 27.0306V16.0076C3.3893 15.5768 3.61827 15.1783 3.99092 14.9605L6.82235 13.3058L6.57638 9.11668C6.55962 8.83111 6.64452 8.5488 6.81611 8.31959L8.55339 5.99896C8.58125 5.96175 8.61123 5.92616 8.64318 5.89237L13.855 0.380885ZM13.9298 47.5728H15.5733L15.84 33.6791C15.8497 33.1726 16.1738 32.7254 16.6529 32.5574L21.8957 30.7191L24.5262 23.3403V17.4361L22.6126 13.3281C22.4754 13.0336 22.4623 12.6965 22.5762 12.3922L23.9726 8.66171L14.9276 2.78391L10.4612 7.50711L9.03142 9.41696L9.295 13.9061C9.32174 14.3616 9.09012 14.7935 8.69546 15.0242L5.82253 16.7031V26.8114L7.27629 30.6952L13.0835 32.5464C13.5877 32.7071 13.9298 33.1744 13.9298 33.7024V47.5728Z" fill="#FF6241"/>
</svg>
