<svg width="56" height="56" viewBox="0 0 56 56" fill="none" xmlns="http://www.w3.org/2000/svg">
<circle cx="28" cy="28" r="27.5" stroke="#CECECE"/>
<path d="M31.7 40H24.3C20.7 40 18.8 39.5 17.6 38.4C16.4 37.3 16 35.3 16 31.7V24.3C16 20.7 16.5 18.8 17.6 17.6C18.8 16.5 20.7 16 24.3 16H31.7C35.3 16 37.2 16.5 38.4 17.6C39.5 18.8 40 20.7 40 24.3V31.7C40 35.3 39.5 37.2 38.4 38.4C37.3 39.6 35.3 40 31.7 40ZM24.3 18C21.4 18 19.8 18.3 19.1 19.1C18.3 19.8 18 21.4 18 24.3V31.7C18 34.6 18.3 36.2 19.1 37C19.8 37.7 21.4 38 24.3 38H31.7C34.6 38 36.2 37.7 37 36.9C37.8 36.1 38.1 34.5 38.1 31.6V24.3C38.1 21.4 37.8 19.8 37 19C36.2 18.3 34.6 18 31.7 18H24.3Z" fill="#1B201E"/>
<path d="M34.4 32.3H32.9C32.3 32.3 32.1 31.8 31.1 30.8C30.2 29.9 29.8 29.8 29.6 29.8C29.3 29.8 29.2 29.9 29.2 30.3V31.7C29.2 32.1 29.1 32.3 28.1 32.3C26.5 32.3 24.7 31.3 23.4 29.5C21.5 26.8 21 24.8 21 24.4C21 24.2 21.1 24 21.5 24H23C23.4 24 23.5 24.2 23.7 24.6C24.5 26.8 25.7 28.7 26.2 28.7C26.4 28.7 26.5 28.6 26.5 28.1V25.9C26.4 24.9 25.9 24.8 25.9 24.4C25.9 24.2 26 24 26.3 24H28.7C29 24 29.1 24.2 29.1 24.6V27.6C29.1 27.9 29.2 28 29.3 28C29.5 28 29.7 27.9 30 27.5C31.1 26.3 31.9 24.4 31.9 24.4C32.1 24.2 32.3 24 32.7 24H34.2C34.7 24 34.8 24.2 34.7 24.6C34.5 25.5 32.6 28.1 32.6 28.1C32.4 28.4 32.4 28.5 32.6 28.8L33.7 29.9C34.4 30.6 34.9 31.3 35 31.7C35.1 32.1 34.8 32.3 34.4 32.3Z" fill="#1B201E"/>
</svg>
