<svg width="56" height="56" viewBox="0 0 56 56" fill="none" xmlns="http://www.w3.org/2000/svg">
<circle cx="28" cy="28" r="27.5" stroke="#CECECE"/>
<path d="M33.377 16H22.623C20.867 16.0019 19.1835 16.7002 17.9419 17.9419C16.7002 19.1835 16.0019 20.867 16 22.623V33.377C16.0019 35.133 16.7002 36.8165 17.9419 38.0581C19.1835 39.2998 20.867 39.9981 22.623 40H33.377C35.133 39.9981 36.8165 39.2998 38.0581 38.0581C39.2998 36.8165 39.9981 35.133 40 33.377V22.623C39.9981 20.867 39.2998 19.1835 38.0581 17.9419C36.8165 16.7002 35.133 16.0019 33.377 16V16ZM37.871 33.377C37.8697 34.5685 37.3958 35.7108 36.5533 36.5533C35.7108 37.3958 34.5685 37.8697 33.377 37.871H22.623C21.4315 37.8697 20.2892 37.3958 19.4467 36.5533C18.6042 35.7108 18.1303 34.5685 18.129 33.377V22.623C18.1306 21.4317 18.6046 20.2897 19.4471 19.4474C20.2895 18.6051 21.4317 18.1313 22.623 18.13H33.377C34.5685 18.1313 35.7108 18.6052 36.5533 19.4477C37.3958 20.2902 37.8697 21.4325 37.871 22.624V33.378V33.377Z" fill="#1B201E"/>
<path d="M25 32L32.8132 27.5L25 23V32Z" fill="black"/>
</svg>
